<svg xmlns="http://www.w3.org/2000/svg" viewBox="20 20 160 160" width="44px" height="44px" role="img" aria-label="Back to top">
  <g fill-rule="evenodd">
    <path fill-rule="nonzero" fill="#80D8DA" d="M180 100c0 44.183-35.817 80-80 80s-80-35.817-80-80 35.817-80 80-80 80 35.817 80 80z"/>
    <path fill-rule="nonzero" fill="#000" d="M72.087 116.163a7.23 7.23 0 0 1-10.265-.642c-2.66-3.036-2.374-7.67.637-10.351l32.939-29.333a7.228 7.228 0 0 1 9.663.031l32.515 29.333c2.994 2.7 3.25 7.337.571 10.355a7.23 7.23 0 0 1-10.269.576l-27.697-24.987-28.094 25.018z"/>
    <path fill-rule="nonzero" fill="#000" d="M100 24c-41.974 0-76 34.026-76 76s34.026 76 76 76 76-34.026 76-76-34.026-76-76-76zm0-4c44.183 0 80 35.817 80 80s-35.817 80-80 80-80-35.817-80-80 35.817-80 80-80z"/>
  </g>
</svg>
